<?xml version="1.0"?>
<svg xmlns="http://www.w3.org/2000/svg" xmlns:xlink="http://www.w3.org/1999/xlink" version="1.1" viewBox="0 0 224 224" width="50px" height="50px"><g fill="none" fill-rule="nonzero" stroke="none" stroke-width="1" stroke-linecap="butt" stroke-linejoin="miter" stroke-miterlimit="10" stroke-dasharray="" stroke-dashoffset="0" font-family="none" font-weight="none" font-size="none" text-anchor="none" style="mix-blend-mode: normal"><path d="M0,224v-224h224v224z" fill="none"/><g fill="#bd2b1c"><path d="M40.32,17.92c-12.31783,0 -22.4,10.08217 -22.4,22.4v143.36c0,12.31783 10.08217,22.4 22.4,22.4h143.36c12.31783,0 22.4,-10.08217 22.4,-22.4v-143.36c0,-12.31783 -10.08217,-22.4 -22.4,-22.4zM40.32,26.88h143.36c7.47481,0 13.44,5.96519 13.44,13.44v143.36c0,7.47481 -5.96519,13.44 -13.44,13.44h-143.36c-7.47481,0 -13.44,-5.96519 -13.44,-13.44v-143.36c0,-7.47481 5.96519,-13.44 13.44,-13.44zM67.2,35.84c1.85472,4.53824 10.76096,24.10751 13.44,31.33375v17.94625h8.96v-17.92l13.44,-31.36h-10.75375l-7.16625,17.92l-7.16625,-17.92zM112,49.28c-4.50688,0 -7.93422,1.2334 -10.4475,4.235c-1.93984,2.2176 -2.98375,5.77444 -2.98375,10.465l-0.00875,6.475c0,4.66368 0.92141,7.88907 2.86125,10.08875c2.51776,2.98816 6.59603,4.57625 10.57875,4.57625c3.98272,0 8.13526,-1.58788 10.6575,-4.585c1.90848,-2.1952 2.7825,-5.41632 2.7825,-10.08v-6.50125c0,-4.69504 -1.08402,-8.22115 -2.9925,-10.43875c-2.51776,-3.0016 -6.46478,-4.235 -10.4475,-4.235zM129.92,49.28v26.15375c0,2.9568 0.4403,4.96601 1.0675,6.25625c1.0304,2.11904 3.09372,3.20467 6.055,3.29875c4.08128,0.1344 7.1463,-2.51195 10.7975,-6.02875v6.16h8.96v-35.84h-8.96v24.08c-2.0384,2.41472 -4.38424,4.55875 -6.23,4.55875c-1.22304,0 -2.506,-0.56259 -2.73,-1.75875v-26.88zM112,56.53375c2.47296,0 4.48,2.04953 4.48,4.57625v12.57375c0,2.52224 -2.00704,4.57625 -4.48,4.57625c-2.47296,0 -4.48,-2.04953 -4.48,-4.57625v-12.57375c0,-2.52224 2.00704,-4.57625 4.48,-4.57625zM111.95625,98.56c0,0 -30.05835,0.0014 -50.12875,1.435c-2.8224,0.3136 -8.9194,0.35875 -14.385,5.95875c-4.3008,4.2112 -5.6875,13.88625 -5.6875,13.88625c0,0 -1.435,6.85685 -1.435,18.19125v10.61375c0,11.3344 1.435,18.19125 1.435,18.19125c0,0 1.3867,9.674 5.6875,13.93c5.4656,5.5552 12.63045,5.37635 15.81125,5.95875c11.4688,1.0752 48.74625,1.435 48.74625,1.435c0,0 30.1021,-0.04515 50.1725,-1.47875c2.8224,-0.3136 8.9194,-0.35875 14.385,-5.95875c4.3008,-4.2112 5.6875,-13.88625 5.6875,-13.88625c0,0 1.435,-6.85685 1.435,-18.19125v-10.61375c0,-11.3344 -1.435,-18.19125 -1.435,-18.19125c0,0 -1.3867,-9.67505 -5.6875,-13.88625c-5.4656,-5.6 -11.5626,-5.64515 -14.385,-5.95875c-20.0704,-1.4336 -50.12875,-1.435 -50.12875,-1.435zM53.76,116.48h26.88v8.96h-8.96v44.8h-8.96v-44.8h-8.96zM112,116.48h8.96v19.62625c3.36,-3.9424 5.14815,-6.23105 9.49375,-6.18625c3.4048,0.0448 6.1425,1.97435 7.2625,5.46875c0.5824,1.8816 1.16375,5.2423 1.16375,9.6775v12.32c-0.0448,3.9424 -0.45115,5.68715 -0.98875,7.56875c-1.12,3.4944 -4.0327,5.285 -7.4375,5.285c-3.0016,0 -6.67135,-2.1056 -9.49375,-5.6v5.6h-8.96zM80.64,129.92h8.96v30.87c0.224,1.2992 1.1627,1.785 2.3275,1.785c1.792,0 4.6613,-1.9691 6.6325,-4.5675v-28.0875h8.96v40.32h-8.96v-6.13375c-3.5392,3.8528 -7.7546,6.13375 -11.025,6.13375c-2.8672,0 -4.8769,-1.2502 -5.8625,-3.535c-0.5824,-1.4336 -1.0325,-3.59065 -1.0325,-6.81625zM156.93125,129.92c4.4352,0 7.97475,1.43325 10.43875,4.12125c1.8368,1.9712 2.87,5.02005 2.87,9.23125v9.0475h-17.92v8.0675c0,2.0608 2.016,3.7625 4.48,3.7625c2.464,0 4.48,-1.7017 4.48,-3.7625v-3.5875h8.96c0,2.2848 -0.2702,4.20945 -0.315,4.92625c-0.3136,1.568 -1.0248,3.00685 -2.1,4.26125c-2.4192,2.8672 -6.05185,4.2525 -10.66625,4.2525c-4.6592,0 -8.1564,-1.34575 -10.71,-4.03375c-1.8816,-1.9264 -3.08875,-4.8811 -3.08875,-9.0475v-13.71125c0,-4.2112 1.07485,-7.43505 3.00125,-9.40625c2.5536,-2.688 6.0452,-4.12125 10.57,-4.12125zM156.8,136.4125c-2.464,0 -4.48,1.6569 -4.48,3.7625v5.915h8.96v-5.915c0,-2.1056 -2.016,-3.7625 -4.48,-3.7625zM126.42875,137.76c-0.6944,0 -1.70765,0.3486 -2.72125,0.875c-0.5068,0.2632 -1.0164,0.56945 -1.4875,0.90125c-0.4711,0.3318 -0.9016,0.6916 -1.26,1.05v19.57375c0.3584,0.3584 0.7889,0.6902 1.26,0.98c1.4133,0.8694 3.16715,1.39125 4.20875,1.39125c0.9072,0 1.61788,-0.22094 2.16125,-0.7525c0.18113,-0.17719 0.3472,-0.39095 0.49,-0.63875c0.2856,-0.4956 0.4914,-1.13855 0.63,-1.95125c0.1386,-0.8127 0.21,-1.799 0.21,-2.975v-12.2675c0,-1.176 -0.0714,-2.1574 -0.21,-2.9575c-0.2772,-1.6002 -0.833,-2.4983 -1.715,-2.9225c-0.441,-0.2121 -0.96145,-0.30625 -1.56625,-0.30625z"/></g></g></svg>
